<svg height="511pt" viewBox="-71 1 511 511.99998" width="511pt" xmlns="http://www.w3.org/2000/svg"><path d="m252.304688 0h-134.296876c-4.636718 0-8.394531 3.757812-8.394531 8.394531v58.753907h-16.785156c0-13.90625-11.273437-25.179688-25.179687-25.179688s-25.179688 11.273438-25.179688 25.179688v394.492187h-16.789062c-13.90625 0-25.179688 11.273437-25.179688 25.179687s11.273438 25.179688 25.179688 25.179688h318.949218c13.910156 0 25.183594-11.273438 25.183594-25.179688s-11.273438-25.179687-25.183594-25.179687h-16.785156v-394.492187c0-13.90625-11.273438-25.179688-25.179688-25.179688s-25.179687 11.273438-25.179687 25.179688h-16.789063v-58.753907c0-4.636719-3.757812-8.394531-8.390624-8.394531zm-125.902344 16.785156h117.507812v50.363282h-16.789062v-25.179688c0-4.636719-3.757813-8.394531-8.390625-8.394531h-33.574219c-4.636719 0-8.394531 3.757812-8.394531 8.394531v25.179688h-20.269531l-5.933594-5.933594c-3.332032-3.148438-8.539063-3.148438-11.871094 0l-5.933594 5.933594h-6.351562zm58.753906 100.722656v16.789063h-16.789062v-16.789063zm-8.394531-16.785156v-16.789062h16.785156v13.917968l-1.910156 2.871094zm16.785156 50.359375h8.394531v8.394531h-33.574218v-8.394531zm0-83.933593v-16.789063h16.789063v16.789063zm24.753906 23.835937 13.96875 9.308594-9.34375 13.96875-12.589843-8.394531v-2.914063zm-16.359375 29.445313 18.691406 12.457031c3.855469 2.566406 9.0625 1.527343 11.636719-2.328125l11.640625-17.457032v12.800782c0 4.636718-3.757812 8.394531-8.394531 8.394531h-33.574219zm36.09375-36.496094h5.875v3.945312zm-81.492187 6.957031-11.878907 11.871094-11.867187-11.871094 6.917969-6.957031h9.828125zm-30.140625 17.386719 12.285156 12.292968c3.28125 3.277344 8.59375 3.277344 11.871094 0l1.023437-1.03125v14.757813h-16.789062c-4.632813 0-8.390625-3.757813-8.390625-8.394531zm-33.574219 168.707031h41.964844c0 18.542969 15.035156 33.574219 33.574219 33.574219h8.394531v14.425781l-10.433594 2.613281c-4.496094 1.125-7.226563 5.683594-6.101563 10.179688.9375 3.734375 4.292969 6.351562 8.140626 6.355468.691406 0 1.378906-.082031 2.050781-.253906l6.34375-1.585937v10.230469h-4.195313c-34.71875-.050782-62.902344 28.050781-62.953125 62.765624-.027343 17.613282 7.335938 34.425782 20.296875 46.351563h-37.082031zm47.683594 140.664063c13.753906 13.832031 36.117187 13.898437 49.949219.144531.046874-.046875.09375-.097657.140624-.144531 6.886719-7.800782 18.796876-8.542969 26.597657-1.65625.585937.519531 1.136719 1.070312 1.65625 1.65625 6.210937 6.214843 14.515625 9.890624 23.292969 10.316406-5.609376 19.890625-23.738282 33.640625-44.402344 33.675781h-25.179688c-25.484375-.027344-46.136718-20.679687-46.164062-46.164063 0-1.410156.082031-2.796874.207031-4.199218 5.320313.089844 10.363281 2.398437 13.902344 6.371094zm-9.175781-22.828126c7.8125-15.617187 23.769531-25.488281 41.230468-25.507812h25.179688c23.851562.03125 43.761718 18.214844 45.953125 41.964844-5.320313-.082032-10.363281-2.382813-13.914063-6.34375-13.757812-13.835938-36.128906-13.898438-49.964844-.140625-.042968.046875-.089843.09375-.136718.140625-6.882813 7.796875-18.785156 8.542968-26.585938 1.660156-.585937-.519531-1.140625-1.074219-1.660156-1.660156-5.449219-5.429688-12.492188-8.976563-20.101562-10.113282zm129.359374 20.65625c-.035156-34.753906-28.199218-62.914062-62.949218-62.953124h-4.199219v-14.425782l10.433594-2.613281c4.507812-1.09375 7.269531-5.628906 6.175781-10.136719-1.09375-4.503906-5.632812-7.269531-10.136719-6.175781-.039062.011719-.078125.019531-.117187.03125l-6.355469 1.585937v-10.230468h8.394531c18.542969 0 33.574219-15.03125 33.574219-33.574219h41.96875v184.65625h-37.082031c12.925781-11.871094 20.285156-28.617187 20.292968-46.164063zm-41.964843-180.460937h-67.148438v-16.785156h67.148438zm0 16.789063v8.390624h-67.148438v-8.390624zm0 25.179687c0 9.269531-7.515625 16.785156-16.789063 16.785156h-33.574218c-9.269532 0-16.785157-7.515625-16.785157-16.785156zm-159.476563-209.835937c0-4.636719 3.757813-8.394532 8.394532-8.394532 4.632812 0 8.390624 3.757813 8.390624 8.394532v394.492187h-16.785156zm235.015625 0c0-4.636719 3.757813-8.394532 8.394531-8.394532 4.636719 0 8.394532 3.757813 8.394532 8.394532v394.492187h-16.789063zm-8.394531 411.277343h58.757812c4.632813 0 8.390626 3.757813 8.390626 8.394531 0 4.636719-3.757813 8.394532-8.390626 8.394532h-318.953124c-4.636719 0-8.394532-3.757813-8.394532-8.394532 0-4.636718 3.757813-8.394531 8.394532-8.394531zm-8.390625-394.492187v176.261718h-41.96875v-50.359374c0-4.636719-3.757813-8.394532-8.394531-8.394532h-83.933594c-4.632812 0-8.390625 3.757813-8.390625 8.394532v50.359374h-41.96875v-176.261718h16.785156v41.96875c0 13.90625 11.273438 25.179687 25.179688 25.179687h16.789062v16.785157c0 4.636718 3.757813 8.394531 8.394531 8.394531h16.785157v8.394531c0 4.632812 3.757812 8.394531 8.394531 8.394531 4.632812 0 8.390625-3.761719 8.390625-8.394531v-8.394531h16.789063c4.636718 0 8.394531-3.757813 8.394531-8.394531v-16.785157h16.785156c13.90625 0 25.179687-11.273437 25.179687-25.179687v-41.96875zm0 0"/></svg>