<svg height="511pt" viewBox="-34 0 511 511.99992" width="511pt" xmlns="http://www.w3.org/2000/svg"><path d="m87.957031 444.328125h16.917969v16.917969h-16.917969zm0 0"/><path d="m121.792969 461.246094h16.917969v16.917968h-16.917969zm0 0"/><path d="m155.632812 444.328125h16.917969v16.917969h-16.917969zm0 0"/><path d="m223.304688 444.328125h16.917968v16.917969h-16.917968zm0 0"/><path d="m257.140625 461.246094h16.917969v16.917968h-16.917969zm0 0"/><path d="m290.976562 444.328125h16.917969v16.917969h-16.917969zm0 0"/><path d="m189.46875 461.246094h16.917969v16.917968h-16.917969zm0 0"/><path d="m54.121094 236.6875v233.015625c.027344 23.347656 18.949218 42.269531 42.296875 42.296875h203.019531c23.347656-.027344 42.265625-18.949219 42.292969-42.296875v-76.132813h50.757812c28.019531-.027343 50.726563-22.734374 50.753907-50.753906v-135.34375c-.027344-28.019531-22.734376-50.726562-50.753907-50.757812h-50.757812v-12.6875c-.027344-23.347656-18.945313-42.265625-42.292969-42.296875h-76.132812v-25.597657c18.6875-14.015624 22.472656-40.523437 8.457031-59.210937-14.011719-18.6875-40.523438-22.476563-59.210938-8.460937-18.6875 14.015624-22.476562 40.527343-8.460937 59.214843 2.40625 3.207031 5.253906 6.054688 8.460937 8.457031v.1875 25.378907h-76.132812c-23.347657.027343-42.269531 18.945312-42.296875 42.292969v21.183593h-36.703125c-9.34375 0-16.917969 7.574219-16.917969 16.917969 0 4.882812 2.109375 9.527344 5.785156 12.738281zm287.609375-20.757812h33.839843v118.429687h-33.839843zm0 135.347656h42.296875c4.671875 0 8.460937-3.789063 8.460937-8.460938v-135.34375c0-4.671875-3.789062-8.460937-8.460937-8.460937h-42.296875v-25.378907h50.757812c18.6875 0 33.835938 15.152344 33.835938 33.839844v135.34375c0 18.6875-15.148438 33.835938-33.835938 33.835938h-50.757812zm-16.917969-101.511719h-101.507812v-33.835937h101.507812zm-25.375-131.117187c14.015625 0 25.375 11.363281 25.375 25.378906v8.460937h-101.507812v-33.839843zm-126.886719-76.128907c0-14.015625 11.359375-25.378906 25.375-25.378906s25.378907 11.363281 25.378907 25.378906-11.363282 25.375-25.378907 25.375-25.375-11.359375-25.375-25.375zm16.917969 59.210938v-17.761719c5.582031 1.136719 11.335938 1.136719 16.917969 0v17.761719zm16.917969 16.917969v33.839843h-16.917969v-33.839843zm-135.347657 25.378906c0-14.015625 11.363282-25.378906 25.378907-25.378906h76.132812v33.839843h-101.511719zm0 29.605468h253.773438v25.378907h-253.773438zm135.347657 42.296876v33.835937h-16.917969v-33.835937zm-135.347657 0h101.511719v33.835937h-101.511719zm0 50.753906h253.773438v33.839844h-16.917969v-8.460938c0-4.671875-3.785156-8.460938-8.457031-8.460938s-8.460938 3.789063-8.460938 8.460938v8.460938h-16.917968v-8.460938c0-4.671875-3.785156-8.460938-8.457032-8.460938-4.671874 0-8.460937 3.789063-8.460937 8.460938v8.460938h-16.917969v-8.460938c0-4.671875-3.785156-8.460938-8.457031-8.460938s-8.460937 3.789063-8.460937 8.460938v8.460938h-16.917969v-8.460938c0-4.671875-3.789063-8.460938-8.460938-8.460938s-8.457031 3.789063-8.457031 8.460938v8.460938h-16.917969v-8.460938c0-4.671875-3.789062-8.460938-8.460937-8.460938s-8.457032 3.789063-8.457032 8.460938v8.460938h-16.917968v-8.460938c0-4.671875-3.789063-8.460938-8.460938-8.460938s-8.457031 3.789063-8.457031 8.460938v8.460938h-16.917969v-8.460938c0-4.671875-3.789062-8.460938-8.460937-8.460938s-8.457031 3.789063-8.457031 8.460938v8.460938h-16.921876zm0 118.429687h33.835938v-16.917969h-33.835938v-16.917968h33.835938v-16.917969h-33.835938v-16.917969h253.773438v93.050782h-253.773438zm0 42.296875h253.773438v42.292969c0 14.015625-11.359375 25.378906-25.375 25.378906h-203.019531c-14.015625 0-25.378907-11.363281-25.378907-25.378906zm-53.621093-245.316406h36.703125v32.144531l-36.796875-32.144531zm0 0"/></svg>