<svg height="480pt" viewBox="-40 0 480 480" width="480pt" xmlns="http://www.w3.org/2000/svg"><path d="m376.769531 248h-84.238281l-6.214844-25.867188-15.5625 3.734376 50.296875 209.3125c1.449219 7.0625-.355469 14.402343-4.910156 19.992187-4.558594 5.585937-11.386719 8.828125-18.597656 8.828125h-257.546875c-7.164063 0-13.953125-3.203125-18.511719-8.730469-4.558594-5.523437-6.410156-12.796875-5.050781-19.832031l50.351562-209.570312-15.5625-3.734376-50.40625 209.828126c-2.417968 11.773437.589844 24.007812 8.183594 33.324218 7.597656 9.3125 18.980469 14.714844 30.996094 14.714844h257.546875c12.066406 0 23.488281-5.445312 31.082031-14.820312 7.59375-9.371094 10.550781-21.675782 8.042969-33.476563l-13.382813-55.703125h21.484375c30.914063-.039062 55.964844-25.085938 56-56v-48c-.011719-13.25-10.75-23.984375-24-24zm8 72c-.023437 22.082031-17.917969 39.972656-40 40h-25.328125l-23.066406-96h80.394531c4.417969.003906 8 3.582031 8 8zm0 0"/><path d="m32.769531 208h272c8.832031-.011719 15.988281-7.167969 16-16v-16c-.011719-8.832031-7.167969-15.988281-16-16h-62.242187l9.597656-48h44.644531c22.082031-.027344 39.976563-17.917969 40-40v-24c-.011719-8.832031-7.167969-15.988281-16-16h-52.640625l.65625-3.289062c1.414063-7.050782-.410156-14.363282-4.96875-19.925782-4.558594-5.558594-11.371094-8.785156-18.5625-8.785156h-152.96875c-7.1875 0-14 3.226562-18.558594 8.785156-4.558593 5.5625-6.382812 12.875-4.972656 19.925782l26.261719 131.289062h-62.246094c-8.832031.011719-15.988281 7.167969-16 16v16c.011719 8.832031 7.167969 15.988281 16 16zm288-160v24c-.011719 13.25-10.75 23.984375-24 24h-41.441406l9.601563-48zm-236.328125-22.429688c-.46875-2.351562.140625-4.789062 1.660156-6.640624 1.515626-1.855469 3.789063-2.929688 6.183594-2.929688h152.96875c2.398438 0 4.667969 1.074219 6.1875 2.929688 1.519532 1.851562 2.128906 4.289062 1.65625 6.640624l-26.882812 134.429688h-114.890625zm-51.671875 150.429688h272v16h-272zm0 0"/><path d="m162.183594 291.453125c-5.578125 8.078125-33.414063 49.351563-33.414063 68.546875 0 22.089844 17.910157 40 40 40 22.09375 0 40-17.910156 40-40 0-19.195312-27.835937-60.46875-33.414062-68.546875l-6.585938-9.53125zm30.585937 68.546875c0 13.253906-10.742187 24-24 24-13.253906 0-24-10.746094-24-24 0-8.734375 12.484375-31.539062 24-49.539062 11.515625 17.992187 24 40.789062 24 49.539062zm0 0"/></svg>